<svg width="50" height="50" viewBox="0 0 50 50" fill="none" xmlns="http://www.w3.org/2000/svg">
<path d="M21.3479 5.00579C21.1577 4.72146 20.9002 4.48843 20.5984 4.32732C20.2966 4.16621 19.9597 4.08199 19.6176 4.08212H4.14925C3.87564 4.08205 3.6047 4.13589 3.35191 4.24056C3.09912 4.34523 2.86942 4.49869 2.67595 4.69216C2.48248 4.88563 2.32903 5.11532 2.22436 5.36811C2.11969 5.62091 2.06585 5.89185 2.06592 6.16546V43.8363C2.06598 44.3189 2.23354 44.7864 2.53999 45.1592C2.84643 45.532 3.27277 45.7868 3.74621 45.8802C4.21964 45.9737 4.71083 45.8999 5.1359 45.6714C5.56097 45.443 5.89358 45.0741 6.07694 44.6277L21.5453 6.95689C21.675 6.64045 21.7248 6.29694 21.6904 5.95668C21.656 5.61642 21.5384 5.28985 21.3479 5.00579V5.00579ZM6.23258 33.2773V8.24879H16.5099L6.23258 33.2773ZM45.8159 4.08212H30.1543C29.8108 4.08226 29.4727 4.16733 29.17 4.32975C28.8673 4.49217 28.6095 4.72691 28.4195 5.01307C28.2295 5.29923 28.1132 5.62794 28.081 5.96991C28.0487 6.31189 28.1016 6.65654 28.2347 6.97316L43.8964 44.1599C44.055 44.5378 44.3217 44.8604 44.663 45.0874C45.0043 45.3143 45.405 45.4354 45.8149 45.4355C45.9535 45.435 46.0918 45.4214 46.2279 45.3948C46.6993 45.2993 47.1232 45.0438 47.4278 44.6715C47.7324 44.2992 47.899 43.8331 47.8993 43.3521V6.16546C47.8993 5.89185 47.8455 5.62091 47.7408 5.36811C47.6361 5.11532 47.4827 4.88563 47.2892 4.69216C47.0958 4.49869 46.8661 4.34523 46.6133 4.24056C46.3605 4.13589 46.0895 4.08205 45.8159 4.08212V4.08212ZM43.7326 33.0372L33.2925 8.24879H43.7326V33.0372ZM26.9774 19.8333C26.8291 19.4407 26.5655 19.102 26.2214 18.8616C25.8772 18.6213 25.4685 18.4905 25.0487 18.4865H25.0284C24.6122 18.4865 24.2056 18.611 23.861 18.8442C23.5163 19.0774 23.2494 19.4084 23.0946 19.7947L16.7215 35.6922C16.5948 36.0084 16.5475 36.3507 16.5838 36.6894C16.6201 37.028 16.7388 37.3526 16.9297 37.6347C17.1205 37.9168 17.3776 38.1478 17.6785 38.3075C17.9793 38.4672 18.3147 38.5507 18.6553 38.5507H23.352L26.5238 44.7804C26.6978 45.1232 26.9634 45.4112 27.2911 45.6123C27.6188 45.8134 27.9958 45.9198 28.3803 45.9197H33.8236C34.1606 45.9197 34.4927 45.8378 34.7912 45.6813C35.0897 45.5247 35.3457 45.2981 35.5374 45.0208C35.7291 44.7435 35.8506 44.4239 35.8916 44.0893C35.9325 43.7547 35.8917 43.4152 35.7726 43.0999L26.9774 19.8333ZM29.6579 41.7531L26.4861 35.5234C26.3121 35.1806 26.0465 34.8926 25.7188 34.6915C25.3911 34.4904 25.0141 34.384 24.6296 34.3841H21.7345L24.9714 26.3112L30.8084 41.7531H29.6579Z" fill="black"/>
</svg>
