<svg width="50" height="50" viewBox="0 0 50 50" fill="none" xmlns="http://www.w3.org/2000/svg">
<path d="M42.7174 32.7992C41.4428 32.254 40.357 31.3454 39.5957 30.1867C38.8344 29.0281 38.4314 27.6709 38.4369 26.2846C38.4533 25.0471 38.7848 23.8342 39.3998 22.7603C40.0149 21.6864 40.8934 20.7868 41.9525 20.1465C42.1921 19.9984 42.3992 19.8033 42.5612 19.5729C42.7233 19.3425 42.837 19.0817 42.8953 18.8061C42.9537 18.5306 42.9556 18.246 42.9009 17.9697C42.8462 17.6934 42.736 17.4311 42.5771 17.1986C41.625 15.8141 40.3839 14.6528 38.9394 13.7946C37.4949 12.9365 35.8813 12.4021 34.2102 12.2283C35.7656 9.75982 36.4715 6.85057 36.2202 3.94375C36.1712 3.41592 35.9196 2.92761 35.5183 2.58128C35.1169 2.23495 34.5971 2.05753 34.0677 2.08625C30.4906 2.40508 27.1745 4.09228 24.8107 6.79613C23.3124 8.53234 22.255 10.6045 21.7285 12.8366C20.6406 12.4684 19.5016 12.2734 18.3532 12.2588C16.2272 12.319 14.1527 12.9276 12.3311 14.0255C10.5094 15.1234 9.00229 16.6733 7.95589 18.525C4.02318 25.3528 6.429 35.5843 10.6892 41.7428C12.3982 44.2106 14.9627 47.9155 18.8313 47.9155C18.9076 47.9155 18.9849 47.9155 19.0622 47.9113C20.3584 47.8378 21.6274 47.5094 22.7966 46.9449C23.7304 46.4716 24.7607 46.2196 25.8076 46.2084C26.7921 46.2204 27.7604 46.4614 28.6356 46.9124C29.9145 47.5175 31.3082 47.8414 32.7229 47.8625C36.7085 47.7872 39.0625 44.3489 40.7816 41.8363C42.1381 39.8404 43.1995 37.6594 43.933 35.3604C44.0894 34.8589 44.0511 34.3168 43.8259 33.8422C43.6006 33.3676 43.2049 32.9952 42.7174 32.7992V32.7992ZM27.9652 9.51629C29.0595 8.29233 30.4305 7.34781 31.9641 6.76158C31.6285 8.41208 30.8862 9.95267 29.8044 11.2436C29.0701 12.1246 28.1767 12.8596 27.1708 13.4104L27.1647 13.4125C27.1057 13.4369 27.0467 13.4593 26.9876 13.4837C26.599 13.6363 26.1188 13.8255 25.7486 13.9476C26.1062 12.3087 26.8682 10.7853 27.9652 9.51629V9.51629ZM37.3433 39.4846C35.6689 41.93 34.3516 43.6655 32.6466 43.696C31.8225 43.6934 31.0121 43.4842 30.2897 43.0876C28.8931 42.4072 27.3612 42.0497 25.8077 42.0418C24.2001 42.0499 22.6144 42.4147 21.1649 43.1099C20.4602 43.4697 19.6914 43.6868 18.9025 43.7488H18.8405C17.1467 43.7488 15.3249 41.1181 14.1153 39.3705C11.089 34.9963 8.29768 26.2805 11.5671 20.6042C12.2527 19.3759 13.2442 18.3457 14.4453 17.6135C15.6465 16.8813 17.0165 16.4721 18.4224 16.4255L18.4926 16.4234C19.6786 16.5242 20.8367 16.8378 21.9116 17.3491C22.1852 17.4569 22.4548 17.5648 22.7223 17.6644C22.7905 17.6929 22.8607 17.7194 22.9319 17.7418C23.6733 18.0399 24.4608 18.2072 25.2593 18.2361C26.3901 18.1463 27.4946 17.849 28.5177 17.3593C29.9599 16.6593 31.5452 16.3048 33.1482 16.3237C34.8628 16.3908 36.5088 17.0151 37.8367 18.1019C36.7019 19.1474 35.7984 20.4188 35.1842 21.8344C34.5699 23.2499 34.2586 24.7783 34.2702 26.3213V26.3234C34.2585 28.1913 34.7207 30.0317 35.6138 31.6724C36.5069 33.3131 37.8017 34.7004 39.3768 35.7045C38.8283 37.0299 38.147 38.2964 37.3433 39.4846V39.4846Z" fill="white"/>
</svg>
