<svg width="50" height="50" viewBox="0 0 50 50" fill="none" xmlns="http://www.w3.org/2000/svg">
<path d="M13.7915 27.25C13.533 27.3436 13.2982 27.4929 13.1038 27.6873C12.9093 27.8817 12.7601 28.1165 12.6665 28.375C12.515 28.7536 12.4779 29.1684 12.5598 29.5678C12.6418 29.9673 12.8391 30.334 13.1275 30.6223C13.4159 30.9107 13.7825 31.1081 14.182 31.19C14.5815 31.272 14.9962 31.2349 15.3748 31.0833C15.6273 30.9778 15.8598 30.8299 16.0623 30.6458C16.2464 30.4433 16.3943 30.2108 16.4998 29.9583C16.6165 29.7111 16.6735 29.44 16.6665 29.1667C16.6588 28.6151 16.443 28.0867 16.0623 27.6875C15.7694 27.3984 15.3973 27.2026 14.9932 27.1247C14.5891 27.0469 14.1709 27.0905 13.7915 27.25ZM41.1665 18.9167L38.3332 10.5208C37.901 9.2984 37.0993 8.24064 36.0392 7.49409C34.9791 6.74754 33.7131 6.34917 32.4165 6.35417H17.5832C16.2866 6.34917 15.0206 6.74754 13.9605 7.49409C12.9004 8.24064 12.0987 9.2984 11.6665 10.5208L8.83317 18.9792C7.50052 19.3282 6.3205 20.1076 5.47657 21.1965C4.63263 22.2853 4.17208 23.6224 4.1665 25V33.3333C4.17013 34.6228 4.5725 35.8796 5.31846 36.9314C6.06442 37.9832 7.11744 38.7785 8.33317 39.2083V41.6667C8.33317 42.2192 8.55266 42.7491 8.94336 43.1398C9.33407 43.5305 9.86397 43.75 10.4165 43.75C10.969 43.75 11.4989 43.5305 11.8896 43.1398C12.2803 42.7491 12.4998 42.2192 12.4998 41.6667V39.5833H37.4998V41.6667C37.4998 42.2192 37.7193 42.7491 38.11 43.1398C38.5007 43.5305 39.0306 43.75 39.5832 43.75C40.1357 43.75 40.6656 43.5305 41.0563 43.1398C41.447 42.7491 41.6665 42.2192 41.6665 41.6667V39.2083C42.8822 38.7785 43.9353 37.9832 44.6812 36.9314C45.4272 35.8796 45.8295 34.6228 45.8332 33.3333V25C45.8276 23.6224 45.367 22.2853 44.5231 21.1965C43.6792 20.1076 42.4992 19.3282 41.1665 18.9792V18.9167ZM15.604 11.8333C15.7438 11.4195 16.01 11.0601 16.3652 10.8059C16.7203 10.5517 17.1464 10.4155 17.5832 10.4167H32.4165C32.8708 10.393 33.3204 10.5186 33.6966 10.7744C34.0728 11.0302 34.3549 11.4021 34.4998 11.8333L36.6873 18.75H13.3123L15.604 11.8333ZM41.6665 33.3333C41.6665 33.8859 41.447 34.4158 41.0563 34.8065C40.6656 35.1972 40.1357 35.4167 39.5832 35.4167H10.4165C9.86397 35.4167 9.33407 35.1972 8.94336 34.8065C8.55266 34.4158 8.33317 33.8859 8.33317 33.3333V25C8.33317 24.4475 8.55266 23.9176 8.94336 23.5269C9.33407 23.1362 9.86397 22.9167 10.4165 22.9167H39.5832C40.1357 22.9167 40.6656 23.1362 41.0563 23.5269C41.447 23.9176 41.6665 24.4475 41.6665 25V33.3333ZM34.6248 27.25C34.3663 27.3436 34.1315 27.4929 33.9371 27.6873C33.7427 27.8817 33.5934 28.1165 33.4998 28.375C33.3483 28.7536 33.3112 29.1684 33.3931 29.5678C33.4751 29.9673 33.6725 30.334 33.9608 30.6223C34.2492 30.9107 34.6159 31.1081 35.0153 31.19C35.4148 31.272 35.8296 31.2349 36.2082 31.0833C36.4667 30.9898 36.7015 30.8405 36.8959 30.6461C37.0903 30.4517 37.2396 30.2169 37.3332 29.9583C37.4498 29.7111 37.5069 29.44 37.4998 29.1667C37.4922 28.6151 37.2764 28.0867 36.8957 27.6875C36.6027 27.3984 36.2307 27.2026 35.8265 27.1247C35.4224 27.0469 35.0042 27.0905 34.6248 27.25V27.25ZM27.0832 27.0833H22.9165C22.364 27.0833 21.8341 27.3028 21.4434 27.6935C21.0527 28.0842 20.8332 28.6141 20.8332 29.1667C20.8332 29.7192 21.0527 30.2491 21.4434 30.6398C21.8341 31.0305 22.364 31.25 22.9165 31.25H27.0832C27.6357 31.25 28.1656 31.0305 28.5563 30.6398C28.947 30.2491 29.1665 29.7192 29.1665 29.1667C29.1665 28.6141 28.947 28.0842 28.5563 27.6935C28.1656 27.3028 27.6357 27.0833 27.0832 27.0833Z" fill="white"/>
</svg>
