<svg width="50" height="50" viewBox="0 0 50 50" fill="none" xmlns="http://www.w3.org/2000/svg">
<path d="M14.5833 33.3333C15.4121 33.3333 16.207 33.0041 16.793 32.418C17.3791 31.832 17.7083 31.0371 17.7083 30.2083C17.7185 30.1044 17.7185 29.9997 17.7083 29.8958L23.5208 24.0833H24H24.4792L27.8333 27.4375C27.8333 27.4375 27.8333 27.5417 27.8333 27.6042C27.8333 28.433 28.1626 29.2278 28.7486 29.8139C29.3347 30.3999 30.1295 30.7292 30.9583 30.7292C31.7871 30.7292 32.582 30.3999 33.168 29.8139C33.7541 29.2278 34.0833 28.433 34.0833 27.6042V27.4375L41.6667 19.7917C42.2847 19.7917 42.8889 19.6084 43.4028 19.265C43.9167 18.9216 44.3173 18.4336 44.5538 17.8625C44.7903 17.2915 44.8522 16.6632 44.7316 16.057C44.611 15.4508 44.3134 14.894 43.8764 14.457C43.4393 14.0199 42.8825 13.7223 42.2763 13.6017C41.6701 13.4811 41.0418 13.543 40.4708 13.7795C39.8998 14.0161 39.4117 14.4166 39.0683 14.9305C38.7249 15.4444 38.5417 16.0486 38.5417 16.6667C38.5315 16.7706 38.5315 16.8752 38.5417 16.9792L31.0208 24.5H30.6875L27.0833 20.8333C27.0833 20.0045 26.7541 19.2097 26.168 18.6236C25.582 18.0376 24.7871 17.7083 23.9583 17.7083C23.1295 17.7083 22.3347 18.0376 21.7486 18.6236C21.1626 19.2097 20.8333 20.0045 20.8333 20.8333L14.5833 27.0833C13.7545 27.0833 12.9597 27.4126 12.3736 27.9986C11.7876 28.5847 11.4583 29.3795 11.4583 30.2083C11.4583 31.0371 11.7876 31.832 12.3736 32.418C12.9597 33.0041 13.7545 33.3333 14.5833 33.3333ZM42.7083 41.6667H7.29167V6.25C7.29167 5.69746 7.07217 5.16756 6.68147 4.77686C6.29077 4.38616 5.76087 4.16666 5.20833 4.16666C4.6558 4.16666 4.12589 4.38616 3.73519 4.77686C3.34449 5.16756 3.125 5.69746 3.125 6.25V43.75C3.125 44.3025 3.34449 44.8324 3.73519 45.2231C4.12589 45.6138 4.6558 45.8333 5.20833 45.8333H42.7083C43.2609 45.8333 43.7908 45.6138 44.1815 45.2231C44.5722 44.8324 44.7917 44.3025 44.7917 43.75C44.7917 43.1975 44.5722 42.6676 44.1815 42.2769C43.7908 41.8862 43.2609 41.6667 42.7083 41.6667Z" fill="black"/>
</svg>
