<svg width="70" height="70" viewBox="0 0 70 70" fill="none" xmlns="http://www.w3.org/2000/svg">
<path d="M61.2502 35C60.4766 35 59.7347 35.3073 59.1878 35.8543C58.6408 36.4013 58.3335 37.1431 58.3335 37.9167V55.4167C58.3335 56.1902 58.0262 56.9321 57.4792 57.4791C56.9322 58.026 56.1904 58.3333 55.4168 58.3333H14.5835C13.8099 58.3333 13.0681 58.026 12.5211 57.4791C11.9741 56.9321 11.6668 56.1902 11.6668 55.4167V14.5833C11.6668 13.8098 11.9741 13.0679 12.5211 12.5209C13.0681 11.974 13.8099 11.6667 14.5835 11.6667H32.0835C32.857 11.6667 33.5989 11.3594 34.1459 10.8124C34.6929 10.2654 35.0002 9.52355 35.0002 8.75C35.0002 7.97645 34.6929 7.23459 34.1459 6.68761C33.5989 6.14062 32.857 5.83333 32.0835 5.83333H14.5835C12.2629 5.83333 10.0373 6.75521 8.39631 8.39615C6.75537 10.0371 5.8335 12.2627 5.8335 14.5833V55.4167C5.8335 57.7373 6.75537 59.9629 8.39631 61.6038C10.0373 63.2448 12.2629 64.1667 14.5835 64.1667H55.4168C57.7375 64.1667 59.9631 63.2448 61.604 61.6038C63.245 59.9629 64.1668 57.7373 64.1668 55.4167V37.9167C64.1668 37.1431 63.8595 36.4013 63.3126 35.8543C62.7656 35.3073 62.0237 35 61.2502 35ZM17.5002 37.2167V49.5833C17.5002 50.3569 17.8075 51.0987 18.3544 51.6457C18.9014 52.1927 19.6433 52.5 20.4168 52.5H32.7835C33.1673 52.5022 33.5479 52.4286 33.9032 52.2835C34.2586 52.1384 34.5818 51.9245 34.8543 51.6542L55.0377 31.4417L63.321 23.3333C63.5944 23.0622 63.8114 22.7396 63.9594 22.3842C64.1075 22.0288 64.1837 21.6475 64.1837 21.2625C64.1837 20.8775 64.1075 20.4962 63.9594 20.1408C63.8114 19.7854 63.5944 19.4628 63.321 19.1917L50.9543 6.67917C50.6832 6.40579 50.3606 6.18881 50.0052 6.04073C49.6498 5.89266 49.2685 5.81642 48.8835 5.81642C48.4985 5.81642 48.1172 5.89266 47.7618 6.04073C47.4064 6.18881 47.0838 6.40579 46.8127 6.67917L38.5877 14.9333L18.346 35.1458C18.0757 35.4184 17.8618 35.7416 17.7167 36.0969C17.5715 36.4523 17.4979 36.8328 17.5002 37.2167V37.2167ZM48.8835 12.8625L57.1377 21.1167L52.996 25.2583L44.7418 17.0042L48.8835 12.8625ZM23.3335 38.4125L40.6293 21.1167L48.8835 29.3708L31.5877 46.6667H23.3335V38.4125Z" fill="white"/>
</svg>
