<svg width="50" height="50" viewBox="0 0 50 50" fill="none" xmlns="http://www.w3.org/2000/svg">
<path d="M43.7503 25C43.1978 25 42.6679 25.2195 42.2772 25.6102C41.8865 26.0009 41.667 26.5308 41.667 27.0833V39.5833C41.667 40.1359 41.4475 40.6658 41.0568 41.0565C40.6661 41.4472 40.1362 41.6667 39.5837 41.6667H10.417C9.86446 41.6667 9.33455 41.4472 8.94385 41.0565C8.55315 40.6658 8.33366 40.1359 8.33366 39.5833V10.4167C8.33366 9.86415 8.55315 9.33424 8.94385 8.94354C9.33455 8.55284 9.86446 8.33335 10.417 8.33335H22.917C23.4695 8.33335 23.9994 8.11386 24.3901 7.72315C24.7808 7.33245 25.0003 6.80255 25.0003 6.25002C25.0003 5.69748 24.7808 5.16758 24.3901 4.77688C23.9994 4.38618 23.4695 4.16668 22.917 4.16668H10.417C8.75939 4.16668 7.16968 4.82516 5.99757 5.99726C4.82547 7.16937 4.16699 8.75908 4.16699 10.4167V39.5833C4.16699 41.241 4.82547 42.8307 5.99757 44.0028C7.16968 45.1749 8.75939 45.8333 10.417 45.8333H39.5837C41.2413 45.8333 42.831 45.1749 44.0031 44.0028C45.1752 42.8307 45.8337 41.241 45.8337 39.5833V27.0833C45.8337 26.5308 45.6142 26.0009 45.2235 25.6102C44.8328 25.2195 44.3029 25 43.7503 25ZM12.5003 26.5833V35.4167C12.5003 35.9692 12.7198 36.4991 13.1105 36.8898C13.5012 37.2805 14.0311 37.5 14.5837 37.5H23.417C23.6912 37.5016 23.963 37.449 24.2168 37.3454C24.4706 37.2417 24.7015 37.0889 24.8962 36.8958L39.3128 22.4583L45.2295 16.6667C45.4248 16.473 45.5797 16.2426 45.6855 15.9887C45.7913 15.7348 45.8457 15.4625 45.8457 15.1875C45.8457 14.9125 45.7913 14.6402 45.6855 14.3863C45.5797 14.1324 45.4248 13.902 45.2295 13.7083L36.3962 4.77085C36.2025 4.57558 35.9721 4.42059 35.7182 4.31482C35.4643 4.20906 35.192 4.1546 34.917 4.1546C34.642 4.1546 34.3697 4.20906 34.1158 4.31482C33.8619 4.42059 33.6315 4.57558 33.4378 4.77085L27.5628 10.6667L13.1045 25.1042C12.9114 25.2988 12.7586 25.5297 12.655 25.7835C12.5513 26.0374 12.4987 26.3092 12.5003 26.5833ZM34.917 9.18751L40.8128 15.0833L37.8545 18.0417L31.9587 12.1458L34.917 9.18751ZM16.667 27.4375L29.0212 15.0833L34.917 20.9792L22.5628 33.3333H16.667V27.4375Z" fill="white"/>
</svg>
