<svg width="50" height="50" viewBox="0 0 50 50" fill="none" xmlns="http://www.w3.org/2000/svg">
<path d="M39.5832 6.25001C38.9984 5.59617 38.2825 5.07275 37.482 4.71381C36.6816 4.35488 35.8146 4.16846 34.9374 4.16668H15.0624C14.1804 4.16133 13.3073 4.3427 12.5004 4.69887C11.6936 5.05504 10.9712 5.57795 10.3809 6.23322C9.79057 6.8885 9.34561 7.66129 9.07526 8.50081C8.80492 9.34033 8.71532 10.2276 8.81236 11.1042L12.0624 40.2708C12.2323 41.8066 12.9651 43.225 14.1193 44.2522C15.2735 45.2794 16.7673 45.8427 18.3124 45.8334H31.6874C33.2324 45.8427 34.7262 45.2794 35.8804 44.2522C37.0346 43.225 37.7674 41.8066 37.9374 40.2708L41.1874 11.1042C41.2772 10.2277 41.1808 9.34214 40.9043 8.50557C40.6278 7.66901 40.1776 6.90034 39.5832 6.25001ZM33.7499 39.8125C33.6932 40.3244 33.449 40.7972 33.0642 41.1396C32.6795 41.482 32.1816 41.6698 31.6665 41.6667H18.3124C17.7973 41.6698 17.2994 41.482 16.9147 41.1396C16.5299 40.7972 16.2857 40.3244 16.229 39.8125L14.1249 20.8333H35.8749L33.7499 39.8125ZM36.3332 16.6667H13.6665L12.9999 10.6458C12.967 10.3536 12.9965 10.0577 13.0863 9.77758C13.176 9.4975 13.3241 9.2396 13.5207 9.02085C13.7155 8.80503 13.9533 8.63237 14.2188 8.51396C14.4843 8.39556 14.7716 8.33403 15.0624 8.33335H34.9374C35.2281 8.33403 35.5154 8.39556 35.7809 8.51396C36.0465 8.63237 36.2842 8.80503 36.479 9.02085C36.6756 9.2396 36.8237 9.4975 36.9134 9.77758C37.0032 10.0577 37.0327 10.3536 36.9999 10.6458L36.3332 16.6667ZM29.1665 37.5C29.7191 37.5 30.249 37.2805 30.6397 36.8898C31.0304 36.4991 31.2499 35.9692 31.2499 35.4167V27.0833C31.2499 26.5308 31.0304 26.0009 30.6397 25.6102C30.249 25.2195 29.7191 25 29.1665 25C28.614 25 28.0841 25.2195 27.6934 25.6102C27.3027 26.0009 27.0832 26.5308 27.0832 27.0833V35.4167C27.0832 35.9692 27.3027 36.4991 27.6934 36.8898C28.0841 37.2805 28.614 37.5 29.1665 37.5ZM20.8332 37.5C21.3857 37.5 21.9156 37.2805 22.3063 36.8898C22.697 36.4991 22.9165 35.9692 22.9165 35.4167V27.0833C22.9165 26.5308 22.697 26.0009 22.3063 25.6102C21.9156 25.2195 21.3857 25 20.8332 25C20.2807 25 19.7508 25.2195 19.3601 25.6102C18.9693 26.0009 18.7499 26.5308 18.7499 27.0833V35.4167C18.7499 35.9692 18.9693 36.4991 19.3601 36.8898C19.7508 37.2805 20.2807 37.5 20.8332 37.5Z" fill="white"/>
</svg>
