<svg width="50" height="50" viewBox="0 0 50 50" fill="none" xmlns="http://www.w3.org/2000/svg">
<path d="M40.5001 27.0833C40.0418 27.0833 39.5626 26.9375 39.1043 26.8333C38.1761 26.6288 37.264 26.3573 36.3751 26.0208C35.4086 25.6692 34.3462 25.6875 33.3924 26.0721C32.4386 26.4567 31.6607 27.1805 31.2084 28.1042L30.7501 29.0417C28.7209 27.9129 26.8563 26.5109 25.2084 24.875C23.5725 23.2271 22.1706 21.3625 21.0418 19.3333L21.9168 18.75C22.8404 18.2977 23.5642 17.5199 23.9488 16.566C24.3334 15.6122 24.3517 14.5498 24.0001 13.5833C23.6693 12.6925 23.3979 11.7808 23.1876 10.8542C23.0834 10.3958 23.0001 9.91667 22.9376 9.4375C22.6846 7.97004 21.916 6.64113 20.7701 5.69008C19.6243 4.73903 18.1765 4.22835 16.6876 4.25H10.4376C9.53974 4.24157 8.65061 4.42669 7.83073 4.79277C7.01086 5.15885 6.27948 5.69728 5.6864 6.37142C5.09332 7.04556 4.65245 7.83957 4.39381 8.6994C4.13517 9.55924 4.06484 10.4647 4.18759 11.3542C5.29746 20.082 9.28348 28.1914 15.516 34.4013C21.7486 40.6112 29.8724 44.5677 38.6043 45.6458H39.3959C40.9322 45.6481 42.4155 45.0844 43.5626 44.0625C44.2217 43.473 44.7482 42.7504 45.1073 41.9423C45.4664 41.1343 45.65 40.2592 45.6459 39.375V33.125C45.6204 31.6779 45.0934 30.2845 44.155 29.1826C43.2165 28.0808 41.9247 27.3388 40.5001 27.0833V27.0833ZM41.5418 39.5833C41.5414 39.8791 41.478 40.1715 41.3559 40.4409C41.2338 40.7103 41.0556 40.9506 40.8334 41.1458C40.6006 41.3468 40.3284 41.497 40.0343 41.5867C39.7401 41.6763 39.4304 41.7036 39.1251 41.6667C31.3228 40.6663 24.0756 37.0968 18.5266 31.5214C12.9776 25.946 9.44261 18.682 8.47925 10.875C8.4461 10.5698 8.47516 10.2611 8.56468 9.96748C8.65419 9.67386 8.80232 9.40143 9.00009 9.16667C9.19532 8.94444 9.43563 8.76634 9.70504 8.6442C9.97445 8.52207 10.2668 8.45871 10.5626 8.45833H16.8126C17.2971 8.44755 17.7701 8.606 18.1504 8.9064C18.5306 9.2068 18.7943 9.63035 18.8959 10.1042C18.9793 10.6736 19.0834 11.2361 19.2084 11.7917C19.4491 12.8899 19.7694 13.9691 20.1668 15.0208L17.2501 16.375C17.0007 16.4894 16.7764 16.652 16.59 16.8533C16.4036 17.0547 16.2588 17.2909 16.164 17.5483C16.0691 17.8058 16.0261 18.0794 16.0373 18.3536C16.0485 18.6277 16.1137 18.897 16.2293 19.1458C19.2276 25.5682 24.3902 30.7308 30.8126 33.7292C31.3198 33.9375 31.8887 33.9375 32.3959 33.7292C32.6557 33.6362 32.8945 33.4926 33.0984 33.3066C33.3022 33.1207 33.4671 32.8961 33.5834 32.6458L34.8751 29.7292C35.9521 30.1143 37.0513 30.4343 38.1668 30.6875C38.7223 30.8125 39.2848 30.9167 39.8543 31C40.3281 31.1016 40.7516 31.3653 41.052 31.7455C41.3524 32.1258 41.5109 32.5989 41.5001 33.0833L41.5418 39.5833Z" fill="#314664"/>
</svg>
